<svg xmlns="http://www.w3.org/2000/svg" xmlns:xlink="http://www.w3.org/1999/xlink" width="500" zoomAndPan="magnify" viewBox="0 0 375 374.999991" height="500" preserveAspectRatio="xMidYMid meet" version="1.0"><defs><clipPath id="2602f54a5a"><path d="M 157 177 L 177 177 L 177 304.667969 L 157 304.667969 Z M 157 177 " clip-rule="nonzero"/></clipPath></defs><rect x="-37.5" width="450" fill="#ffffff" y="-37.499999" height="449.999989" fill-opacity="1"/><rect x="-37.5" width="450" fill="#9abce2" y="-37.499999" height="449.999989" fill-opacity="1"/><path fill="#4d7eb9" d="M 214.484375 190.695312 C 214.484375 190.695312 291.808594 221.996094 219.429688 267.449219 C 243.160156 249.492188 257.472656 222.46875 214.484375 190.695312 Z M 214.484375 190.695312 " fill-opacity="1" fill-rule="evenodd"/><g clip-path="url(#2602f54a5a)"><path fill="#4d7eb9" d="M 157.242188 177.152344 C 201.394531 215.667969 142.8125 248.488281 176.300781 304.484375 C 157.4375 275.726562 153.515625 257.828125 160.355469 228.714844 C 167.195312 199.625 168.871094 197.316406 157.242188 177.152344 Z M 157.242188 177.152344 " fill-opacity="1" fill-rule="evenodd"/></g><path fill="#4d7eb9" d="M 158.582031 157.085938 C 134.0625 184.070312 127.261719 192.488281 154.757812 217.285156 C 154.757812 217.285156 128.011719 204.097656 128.011719 190.714844 C 128.011719 177.351562 158.582031 157.085938 158.582031 157.085938 Z M 158.582031 157.085938 " fill-opacity="1" fill-rule="evenodd"/><path fill="#4d7eb9" d="M 211.113281 161.1875 C 211.113281 161.1875 239.160156 170.3125 214.917969 189.769531 C 218.5625 182.632812 225.027344 172.640625 211.113281 161.1875 Z M 211.113281 161.1875 " fill-opacity="1" fill-rule="evenodd"/><path fill="#4d7eb9" d="M 213.574219 261.613281 C 184.976562 246.378906 202.773438 226.960938 213.574219 239.320312 C 224.359375 226.960938 242.15625 246.378906 213.574219 261.613281 Z M 213.574219 261.613281 " fill-opacity="1" fill-rule="evenodd"/><path fill="#4d7eb9" d="M 164.082031 150.878906 C 164.082031 150.878906 174.609375 143.507812 166.289062 127.972656 C 162.425781 117.785156 165.085938 116.1875 165.085938 116.1875 C 153.300781 102.074219 177.800781 89.753906 181.445312 102.527344 C 188.976562 102.921875 214.324219 108.558594 211.152344 119.066406 C 207.996094 129.570312 190.554688 132.527344 190.554688 132.527344 C 190.554688 132.527344 204.132812 132.527344 207.996094 130.164062 C 204.429688 142.148438 198.675781 151.351562 189.46875 152.847656 C 180.246094 154.328125 178.371094 145.617188 178.371094 145.617188 C 178.371094 145.617188 180.046875 156.515625 191.734375 155.511719 C 203.425781 154.523438 210.558594 142.933594 214.523438 130.851562 C 220.082031 124.109375 223.351562 114.808594 210.855469 104.203125 C 198.378906 93.597656 184.503906 96.28125 184.503906 96.28125 C 179.4375 76.765625 143.1875 96.773438 159.253906 116.484375 C 160.355469 133.574219 172.519531 135.9375 164.082031 150.878906 Z M 164.082031 150.878906 " fill-opacity="1" fill-rule="evenodd"/></svg>